REM DIRINDEX 1\3,1\4,1\5,1\6,1\2\7,1\2\8,1\2\9,1\2\10,1\2\11
REM DIRNAME folder01,folder02,folder03,folder04,folder05,folder06,folder07,folder08,folder09,folder10,folder11
TITLE ""
FILE "DISC1Track01.mp3" MP3
  TRACK 01 AUDIO
    TITLE "0:"
    INDEX 01 00:00:00
  TRACK 02 AUDIO
    TITLE "6:cjc021_0001"
    INDEX 01 00:00:23
  TRACK 03 AUDIO
    TITLE "0:"
    INDEX 01 00:04:21
  TRACK 04 AUDIO
    TITLE "6:cjc021_0002"
    INDEX 01 00:04:36
  TRACK 05 AUDIO
    TITLE "0:"
    INDEX 01 00:06:06
  TRACK 06 AUDIO
    TITLE "7:cjc021_0003"
    INDEX 01 00:10:18
  TRACK 07 AUDIO
    TITLE "0:"
    INDEX 01 00:15:03
  TRACK 08 AUDIO
    TITLE "7:cjc021_0004"
    INDEX 01 00:16:04
  TRACK 09 AUDIO
    TITLE "0:"
    INDEX 01 00:17:06
  TRACK 10 AUDIO
    TITLE "8:cjc021_0005"
    INDEX 01 00:18:07
  TRACK 11 AUDIO
    TITLE "0:"
    INDEX 01 00:19:28
  TRACK 12 AUDIO
    TITLE "10:cjc021_0006"
    INDEX 01 00:19:73
  TRACK 13 AUDIO
    TITLE "0:"
    INDEX 01 00:21:02
  TRACK 14 AUDIO
    TITLE "10:cjc021_0007"
    INDEX 01 00:21:31
  TRACK 15 AUDIO
    TITLE "0:"
    INDEX 01 00:22:48
  TRACK 16 AUDIO
    TITLE "10:cjc021_0008"
    INDEX 01 00:23:01
  TRACK 17 AUDIO
    TITLE "0:"
    INDEX 01 00:24:04
  TRACK 18 AUDIO
    TITLE "10:cjc021_0009"
    INDEX 01 00:24:31
  TRACK 19 AUDIO
    TITLE "0:"
    INDEX 01 00:25:45
  TRACK 20 AUDIO
    TITLE "8:cjc021_0010"
    INDEX 01 00:27:02
  TRACK 21 AUDIO
    TITLE "0:"
    INDEX 01 00:28:25
  TRACK 22 AUDIO
    TITLE "10:cjc021_0011"
    INDEX 01 00:28:72
  TRACK 23 AUDIO
    TITLE "0:"
    INDEX 01 00:29:58
  TRACK 24 AUDIO
    TITLE "10:cjc021_0012"
    INDEX 01 00:30:12
  TRACK 25 AUDIO
    TITLE "0:"
    INDEX 01 00:31:20
  TRACK 26 AUDIO
    TITLE "10:cjc021_0013"
    INDEX 01 00:31:47
  TRACK 27 AUDIO
    TITLE "0:"
    INDEX 01 00:32:66
  TRACK 28 AUDIO
    TITLE "10:cjc021_0014"
    INDEX 01 00:33:19
  TRACK 29 AUDIO
    TITLE "0:"
    INDEX 01 00:34:24
  TRACK 30 AUDIO
    TITLE "8:cjc021_0015"
    INDEX 01 00:35:59
  TRACK 31 AUDIO
    TITLE "0:"
    INDEX 01 00:37:08
  TRACK 32 AUDIO
    TITLE "10:cjc021_0016"
    INDEX 01 00:37:56
  TRACK 33 AUDIO
    TITLE "0:"
    INDEX 01 00:38:37
  TRACK 34 AUDIO
    TITLE "10:cjc021_0017"
    INDEX 01 00:38:65
  TRACK 35 AUDIO
    TITLE "0:"
    INDEX 01 00:40:01
  TRACK 36 AUDIO
    TITLE "10:cjc021_0018"
    INDEX 01 00:40:28
  TRACK 37 AUDIO
    TITLE "0:"
    INDEX 01 00:41:26
  TRACK 38 AUDIO
    TITLE "10:cjc021_0019"
    INDEX 01 00:41:57
  TRACK 39 AUDIO
    TITLE "0:"
    INDEX 01 00:42:68
  TRACK 40 AUDIO
    TITLE "8:cjc021_0020"
    INDEX 01 00:44:22
  TRACK 41 AUDIO
    TITLE "0:"
    INDEX 01 00:45:49
  TRACK 42 AUDIO
    TITLE "10:cjc021_0021"
    INDEX 01 00:46:19
  TRACK 43 AUDIO
    TITLE "0:"
    INDEX 01 00:47:01
  TRACK 44 AUDIO
    TITLE "10:cjc021_0022"
    INDEX 01 00:47:32
  TRACK 45 AUDIO
    TITLE "0:"
    INDEX 01 00:48:44
  TRACK 46 AUDIO
    TITLE "10:cjc021_0023"
    INDEX 01 00:48:73
  TRACK 47 AUDIO
    TITLE "0:"
    INDEX 01 00:49:74
  TRACK 48 AUDIO
    TITLE "10:cjc021_0024"
    INDEX 01 00:50:27
  TRACK 49 AUDIO
    TITLE "0:"
    INDEX 01 00:51:38
  TRACK 50 AUDIO
    TITLE "8:cjc021_0025"
    INDEX 01 00:52:69
  TRACK 51 AUDIO
    TITLE "0:"
    INDEX 01 00:54:21
  TRACK 52 AUDIO
    TITLE "10:cjc021_0026"
    INDEX 01 00:54:70
  TRACK 53 AUDIO
    TITLE "0:"
    INDEX 01 00:55:59
  TRACK 54 AUDIO
    TITLE "10:cjc021_0027"
    INDEX 01 00:56:12
  TRACK 55 AUDIO
    TITLE "0:"
    INDEX 01 00:57:19
  TRACK 56 AUDIO
    TITLE "10:cjc021_0028"
    INDEX 01 00:57:46
  TRACK 57 AUDIO
    TITLE "0:"
    INDEX 01 00:58:52
  TRACK 58 AUDIO
    TITLE "10:cjc021_0029"
    INDEX 01 00:59:06
  TRACK 59 AUDIO
    TITLE "0:"
    INDEX 01 01:00:13
  TRACK 60 AUDIO
    TITLE "8:cjc021_0030"
    INDEX 01 01:01:44
  TRACK 61 AUDIO
    TITLE "0:"
    INDEX 01 01:02:69
  TRACK 62 AUDIO
    TITLE "10:cjc021_0031"
    INDEX 01 01:03:39
  TRACK 63 AUDIO
    TITLE "0:"
    INDEX 01 01:04:27
  TRACK 64 AUDIO
    TITLE "10:cjc021_0032"
    INDEX 01 01:04:58
  TRACK 65 AUDIO
    TITLE "0:"
    INDEX 01 01:05:60
  TRACK 66 AUDIO
    TITLE "10:cjc021_0033"
    INDEX 01 01:06:26
  TRACK 67 AUDIO
    TITLE "0:"
    INDEX 01 01:07:35
  TRACK 68 AUDIO
    TITLE "10:cjc021_0034"
    INDEX 01 01:07:63
  TRACK 69 AUDIO
    TITLE "0:"
    INDEX 01 01:08:64
  TRACK 70 AUDIO
    TITLE "8:cjc021_0035"
    INDEX 01 01:10:24
  TRACK 71 AUDIO
    TITLE "0:"
    INDEX 01 01:11:47
  TRACK 72 AUDIO
    TITLE "10:cjc021_0036"
    INDEX 01 01:12:21
  TRACK 73 AUDIO
    TITLE "0:"
    INDEX 01 01:13:08
  TRACK 74 AUDIO
    TITLE "10:cjc021_0037"
    INDEX 01 01:13:36
  TRACK 75 AUDIO
    TITLE "0:"
    INDEX 01 01:14:49
  TRACK 76 AUDIO
    TITLE "10:cjc021_0038"
    INDEX 01 01:15:03
  TRACK 77 AUDIO
    TITLE "0:"
    INDEX 01 01:16:14
  TRACK 78 AUDIO
    TITLE "10:cjc021_0039"
    INDEX 01 01:16:42
  TRACK 79 AUDIO
    TITLE "0:"
    INDEX 01 01:17:45
  TRACK 80 AUDIO
    TITLE "8:cjc021_0040"
    INDEX 01 01:19:01
  TRACK 81 AUDIO
    TITLE "0:"
    INDEX 01 01:20:18
  TRACK 82 AUDIO
    TITLE "10:cjc021_0041"
    INDEX 01 01:20:65
  TRACK 83 AUDIO
    TITLE "0:"
    INDEX 01 01:21:63
  TRACK 84 AUDIO
    TITLE "10:cjc021_0042"
    INDEX 01 01:22:17
  TRACK 85 AUDIO
    TITLE "0:"
    INDEX 01 01:23:28
  TRACK 86 AUDIO
    TITLE "10:cjc021_0043"
    INDEX 01 01:23:56
  TRACK 87 AUDIO
    TITLE "0:"
    INDEX 01 01:24:61
  TRACK 88 AUDIO
    TITLE "10:cjc021_0044"
    INDEX 01 01:25:15
  TRACK 89 AUDIO
    TITLE "0:"
    INDEX 01 01:26:23
  TRACK 90 AUDIO
    TITLE "8:cjc021_0045"
    INDEX 01 01:27:57
  TRACK 91 AUDIO
    TITLE "0:"
    INDEX 01 01:29:07
  TRACK 92 AUDIO
    TITLE "10:cjc021_0046"
    INDEX 01 01:29:54
  TRACK 93 AUDIO
    TITLE "0:"
    INDEX 01 01:30:28
  TRACK 94 AUDIO
    TITLE "10:cjc021_0047"
    INDEX 01 01:30:56
  TRACK 95 AUDIO
    TITLE "0:"
    INDEX 01 01:31:63
  TRACK 96 AUDIO
    TITLE "10:cjc021_0048"
    INDEX 01 01:32:17
  TRACK 97 AUDIO
    TITLE "0:"
    INDEX 01 01:33:19
  TRACK 98 AUDIO
    TITLE "10:cjc021_0049"
    INDEX 01 01:33:48
  TRACK 99 AUDIO
    TITLE "0:"
    INDEX 01 01:34:55
  TRACK 100 AUDIO
    TITLE "8:cjc021_0050"
    INDEX 01 01:36:11
  TRACK 101 AUDIO
    TITLE "0:"
    INDEX 01 01:37:32
  TRACK 102 AUDIO
    TITLE "10:cjc021_0051"
    INDEX 01 01:38:04
  TRACK 103 AUDIO
    TITLE "0:"
    INDEX 01 01:38:67
  TRACK 104 AUDIO
    TITLE "10:cjc021_0052"
    INDEX 01 01:39:17
  TRACK 105 AUDIO
    TITLE "0:"
    INDEX 01 01:40:31
  TRACK 106 AUDIO
    TITLE "10:cjc021_0053"
    INDEX 01 01:40:60
  TRACK 107 AUDIO
    TITLE "0:"
    INDEX 01 01:41:73
  TRACK 108 AUDIO
    TITLE "10:cjc021_0054"
    INDEX 01 01:42:26
  TRACK 109 AUDIO
    TITLE "0:"
    INDEX 01 01:43:33
  TRACK 110 AUDIO
    TITLE "8:cjc021_0055"
    INDEX 01 01:44:66
  TRACK 111 AUDIO
    TITLE "0:"
    INDEX 01 01:46:19
  TRACK 112 AUDIO
    TITLE "10:cjc021_0056"
    INDEX 01 01:46:66
  TRACK 113 AUDIO
    TITLE "0:"
    INDEX 01 01:47:60
  TRACK 114 AUDIO
    TITLE "10:cjc021_0057"
    INDEX 01 01:48:12
  TRACK 115 AUDIO
    TITLE "0:"
    INDEX 01 01:49:16
  TRACK 116 AUDIO
    TITLE "10:cjc021_0058"
    INDEX 01 01:49:45
  TRACK 117 AUDIO
    TITLE "0:"
    INDEX 01 01:50:47
  TRACK 118 AUDIO
    TITLE "10:cjc021_0059"
    INDEX 01 01:51:01
  TRACK 119 AUDIO
    TITLE "0:"
    INDEX 01 01:52:04
  TRACK 120 AUDIO
    TITLE "8:cjc021_0060"
    INDEX 01 01:53:37
  TRACK 121 AUDIO
    TITLE "0:"
    INDEX 01 01:54:64
  TRACK 122 AUDIO
    TITLE "10:cjc021_0061"
    INDEX 01 01:55:36
  TRACK 123 AUDIO
    TITLE "0:"
    INDEX 01 01:56:14
  TRACK 124 AUDIO
    TITLE "10:cjc021_0062"
    INDEX 01 01:56:43
  TRACK 125 AUDIO
    TITLE "0:"
    INDEX 01 01:57:43
  TRACK 126 AUDIO
    TITLE "10:cjc021_0063"
    INDEX 01 01:57:74
  TRACK 127 AUDIO
    TITLE "0:"
    INDEX 01 01:58:72
  TRACK 128 AUDIO
    TITLE "10:cjc021_0064"
    INDEX 01 01:59:26
  TRACK 129 AUDIO
    TITLE "0:"
    INDEX 01 02:00:24
  TRACK 130 AUDIO
    TITLE "8:cjc021_0065"
    INDEX 01 02:01:56
  TRACK 131 AUDIO
    TITLE "0:"
    INDEX 01 02:03:18
  TRACK 132 AUDIO
    TITLE "10:cjc021_0066"
    INDEX 01 02:03:65
  TRACK 133 AUDIO
    TITLE "0:"
    INDEX 01 02:04:62
  TRACK 134 AUDIO
    TITLE "10:cjc021_0067"
    INDEX 01 02:05:15
  TRACK 135 AUDIO
    TITLE "0:"
    INDEX 01 02:06:30
  TRACK 136 AUDIO
    TITLE "10:cjc021_0068"
    INDEX 01 02:06:57
  TRACK 137 AUDIO
    TITLE "0:"
    INDEX 01 02:07:59
  TRACK 138 AUDIO
    TITLE "10:cjc021_0069"
    INDEX 01 02:08:13
  TRACK 139 AUDIO
    TITLE "0:"
    INDEX 01 02:09:15
  TRACK 140 AUDIO
    TITLE "8:cjc021_0070"
    INDEX 01 02:10:47
  TRACK 141 AUDIO
    TITLE "0:"
    INDEX 01 02:12:15
  TRACK 142 AUDIO
    TITLE "10:cjc021_0071"
    INDEX 01 02:12:64
  TRACK 143 AUDIO
    TITLE "0:"
    INDEX 01 02:13:50
  TRACK 144 AUDIO
    TITLE "10:cjc021_0072"
    INDEX 01 02:14:04
  TRACK 145 AUDIO
    TITLE "0:"
    INDEX 01 02:15:09
  TRACK 146 AUDIO
    TITLE "10:cjc021_0073"
    INDEX 01 02:15:35
  TRACK 147 AUDIO
    TITLE "0:"
    INDEX 01 02:16:40
  TRACK 148 AUDIO
    TITLE "10:cjc021_0074"
    INDEX 01 02:16:68
  TRACK 149 AUDIO
    TITLE "0:"
    INDEX 01 02:17:73
  TRACK 150 AUDIO
    TITLE "8:cjc021_0075"
    INDEX 01 02:19:31
  TRACK 151 AUDIO
    TITLE "0:"
    INDEX 01 02:21:02
  TRACK 152 AUDIO
    TITLE "10:cjc021_0076"
    INDEX 01 02:21:49
  TRACK 153 AUDIO
    TITLE "0:"
    INDEX 01 02:22:45
  TRACK 154 AUDIO
    TITLE "10:cjc021_0077"
    INDEX 01 02:22:74
  TRACK 155 AUDIO
    TITLE "0:"
    INDEX 01 02:24:00
  TRACK 156 AUDIO
    TITLE "10:cjc021_0078"
    INDEX 01 02:24:28
  TRACK 157 AUDIO
    TITLE "0:"
    INDEX 01 02:25:37
  TRACK 158 AUDIO
    TITLE "10:cjc021_0079"
    INDEX 01 02:25:59
  TRACK 159 AUDIO
    TITLE "0:"
    INDEX 01 02:26:70
  TRACK 160 AUDIO
    TITLE "8:cjc021_0080"
    INDEX 01 02:28:30
  TRACK 161 AUDIO
    TITLE "0:"
    INDEX 01 02:30:07
  TRACK 162 AUDIO
    TITLE "10:cjc021_0081"
    INDEX 01 02:30:54
  TRACK 163 AUDIO
    TITLE "0:"
    INDEX 01 02:31:38
  TRACK 164 AUDIO
    TITLE "10:cjc021_0082"
    INDEX 01 02:31:67
  TRACK 165 AUDIO
    TITLE "0:"
    INDEX 01 02:32:69
  TRACK 166 AUDIO
    TITLE "10:cjc021_0083"
    INDEX 01 02:33:21
  TRACK 167 AUDIO
    TITLE "0:"
    INDEX 01 02:34:30
  TRACK 168 AUDIO
    TITLE "10:cjc021_0084"
    INDEX 01 02:34:58
  TRACK 169 AUDIO
    TITLE "0:"
    INDEX 01 02:35:71
  TRACK 170 AUDIO
    TITLE "8:cjc021_0085"
    INDEX 01 02:37:31
  TRACK 171 AUDIO
    TITLE "0:"
    INDEX 01 02:39:00
  TRACK 172 AUDIO
    TITLE "10:cjc021_0086"
    INDEX 01 02:39:47
  TRACK 173 AUDIO
    TITLE "0:"
    INDEX 01 02:40:39
  TRACK 174 AUDIO
    TITLE "10:cjc021_0087"
    INDEX 01 02:40:68
  TRACK 175 AUDIO
    TITLE "0:"
    INDEX 01 02:42:02
  TRACK 176 AUDIO
    TITLE "10:cjc021_0088"
    INDEX 01 02:42:30
  TRACK 177 AUDIO
    TITLE "0:"
    INDEX 01 02:43:37
  TRACK 178 AUDIO
    TITLE "10:cjc021_0089"
    INDEX 01 02:43:64
  TRACK 179 AUDIO
    TITLE "0:"
    INDEX 01 02:44:70
  TRACK 180 AUDIO
    TITLE "8:cjc021_0090"
    INDEX 01 02:46:28
  TRACK 181 AUDIO
    TITLE "0:"
    INDEX 01 02:47:74
  TRACK 182 AUDIO
    TITLE "10:cjc021_0091"
    INDEX 01 02:48:46
  TRACK 183 AUDIO
    TITLE "0:"
    INDEX 01 02:49:34
  TRACK 184 AUDIO
    TITLE "10:cjc021_0092"
    INDEX 01 02:49:69
  TRACK 185 AUDIO
    TITLE "0:"
    INDEX 01 02:50:68
  TRACK 186 AUDIO
    TITLE "10:cjc021_0093"
    INDEX 01 02:51:21
  TRACK 187 AUDIO
    TITLE "0:"
    INDEX 01 02:52:20
  TRACK 188 AUDIO
    TITLE "10:cjc021_0094"
    INDEX 01 02:52:48
  TRACK 189 AUDIO
    TITLE "0:"
    INDEX 01 02:53:69
  TRACK 190 AUDIO
    TITLE "8:cjc021_0095"
    INDEX 01 02:55:27
  TRACK 191 AUDIO
    TITLE "0:"
    INDEX 01 02:56:67
  TRACK 192 AUDIO
    TITLE "10:cjc021_0096"
    INDEX 01 02:57:39
  TRACK 193 AUDIO
    TITLE "0:"
    INDEX 01 02:58:35
  TRACK 194 AUDIO
    TITLE "10:cjc021_0097"
    INDEX 01 02:58:70
  TRACK 195 AUDIO
    TITLE "0:"
    INDEX 01 02:59:73
  TRACK 196 AUDIO
    TITLE "10:cjc021_0098"
    INDEX 01 03:00:26
  TRACK 197 AUDIO
    TITLE "0:"
    INDEX 01 03:01:35
  TRACK 198 AUDIO
    TITLE "10:cjc021_0099"
    INDEX 01 03:01:62
  TRACK 199 AUDIO
    TITLE "0:"
    INDEX 01 03:02:68
  TRACK 200 AUDIO
    TITLE "8:cjc021_0100"
    INDEX 01 03:04:27
  TRACK 201 AUDIO
    TITLE "0:"
    INDEX 01 03:05:48
  TRACK 202 AUDIO
    TITLE "10:cjc021_0101"
    INDEX 01 03:06:20
  TRACK 203 AUDIO
    TITLE "0:"
    INDEX 01 03:07:16
  TRACK 204 AUDIO
    TITLE "10:cjc021_0102"
    INDEX 01 03:07:45
  TRACK 205 AUDIO
    TITLE "0:"
    INDEX 01 03:08:47
  TRACK 206 AUDIO
    TITLE "10:cjc021_0103"
    INDEX 01 03:09:03
  TRACK 207 AUDIO
    TITLE "0:"
    INDEX 01 03:10:10
  TRACK 208 AUDIO
    TITLE "10:cjc021_0104"
    INDEX 01 03:10:38
  TRACK 209 AUDIO
    TITLE "0:"
    INDEX 01 03:11:41
  TRACK 210 AUDIO
    TITLE "8:cjc021_0105"
    INDEX 01 03:12:74
  TRACK 211 AUDIO
    TITLE "0:"
    INDEX 01 03:14:45
  TRACK 212 AUDIO
    TITLE "10:cjc021_0106"
    INDEX 01 03:15:17
  TRACK 213 AUDIO
    TITLE "0:"
    INDEX 01 03:16:15
  TRACK 214 AUDIO
    TITLE "10:cjc021_0107"
    INDEX 01 03:16:44
  TRACK 215 AUDIO
    TITLE "0:"
    INDEX 01 03:17:54
  TRACK 216 AUDIO
    TITLE "10:cjc021_0108"
    INDEX 01 03:18:06
  TRACK 217 AUDIO
    TITLE "0:"
    INDEX 01 03:19:15
  TRACK 218 AUDIO
    TITLE "10:cjc021_0109"
    INDEX 01 03:19:43
  TRACK 219 AUDIO
    TITLE "0:"
    INDEX 01 03:20:60
  TRACK 220 AUDIO
    TITLE "8:cjc021_0110"
    INDEX 01 03:22:19
  TRACK 221 AUDIO
    TITLE "0:"
    INDEX 01 03:23:64
  TRACK 222 AUDIO
    TITLE "10:cjc021_0111"
    INDEX 01 03:24:38
  TRACK 223 AUDIO
    TITLE "0:"
    INDEX 01 03:25:35
  TRACK 224 AUDIO
    TITLE "10:cjc021_0112"
    INDEX 01 03:25:63
  TRACK 225 AUDIO
    TITLE "0:"
    INDEX 01 03:26:72
  TRACK 226 AUDIO
    TITLE "10:cjc021_0113"
    INDEX 01 03:27:21
  TRACK 227 AUDIO
    TITLE "0:"
    INDEX 01 03:28:51
  TRACK 228 AUDIO
    TITLE "10:cjc021_0114"
    INDEX 01 03:29:02
  TRACK 229 AUDIO
    TITLE "0:"
    INDEX 01 03:30:03
  TRACK 230 AUDIO
    TITLE "8:cjc021_0115"
    INDEX 01 03:31:36
  TRACK 231 AUDIO
    TITLE "0:"
    INDEX 01 03:33:13
  TRACK 232 AUDIO
    TITLE "10:cjc021_0116"
    INDEX 01 03:33:60
  TRACK 233 AUDIO
    TITLE "0:"
    INDEX 01 03:34:64
  TRACK 234 AUDIO
    TITLE "10:cjc021_0117"
    INDEX 01 03:35:30
  TRACK 235 AUDIO
    TITLE "0:"
    INDEX 01 03:36:35
  TRACK 236 AUDIO
    TITLE "10:cjc021_0118"
    INDEX 01 03:36:63
  TRACK 237 AUDIO
    TITLE "0:"
    INDEX 01 03:37:70
  TRACK 238 AUDIO
    TITLE "10:cjc021_0119"
    INDEX 01 03:38:24
  TRACK 239 AUDIO
    TITLE "0:"
    INDEX 01 03:39:26
